<?xml version="1.0" encoding="UTF-8" standalone="no"?>
<!DOCTYPE svg PUBLIC "-//W3C//DTD SVG 1.1//EN" "http://www.w3.org/Graphics/SVG/1.1/DTD/svg11.dtd">
<svg xmlns="http://www.w3.org/2000/svg" version="1.1" viewBox="0.00 0.00 100.00 80.00">
<path fill="#06a3e8" d="
  M 33.06 11.91
  C 25.64 13.47 22.30 21.27 21.64 28.15
  Q 20.93 35.50 24.15 41.23
  C 27.70 47.55 35.44 50.65 41.96 47.12
  Q 47.03 44.37 47.13 38.31
  Q 47.19 34.94 45.39 32.70
  C 42.77 29.43 37.47 28.48 34.62 31.90
  Q 31.44 35.72 34.04 39.68
  Q 35.54 41.98 38.39 41.78
  C 42.53 41.49 43.30 34.91 38.68 34.33
  Q 37.91 34.23 38.61 33.90
  Q 39.24 33.60 39.95 33.67
  C 45.15 34.17 44.77 40.98 40.37 42.47
  Q 36.66 43.73 33.40 41.06
  C 28.84 37.32 28.85 30.23 33.66 26.69
  Q 38.27 23.31 43.99 25.31
  C 48.11 26.75 51.23 30.97 51.19 35.41
  Q 51.11 45.38 41.93 48.49
  Q 34.43 51.03 26.55 47.86
  Q 17.86 44.36 15.46 35.05
  C 14.42 31.02 14.64 25.98 16.31 22.09
  Q 20.24 12.93 29.94 10.82
  C 35.35 9.65 41.43 10.67 46.27 13.33
  A 1.15 1.15 0.0 0 1 46.84 14.54
  L 46.14 18.38
  Q 45.78 20.33 45.15 18.45
  C 43.39 13.10 38.59 10.76 33.06 11.91
  Z"
/>
<path fill="#06a3e8" d="
  M 73.43 43.30
  Q 77.04 33.82 80.72 23.01
  Q 82.29 18.36 82.79 13.43
  A 0.70 0.69 -86.0 0 1 83.50 12.81
  L 86.23 12.93
  Q 86.98 12.96 86.53 13.56
  Q 84.92 15.74 83.97 18.06
  Q 80.21 27.34 76.36 38.52
  Q 74.79 43.07 74.42 47.88
  Q 74.37 48.48 73.77 48.48
  L 66.73 48.47
  Q 66.14 48.47 66.12 47.88
  Q 65.94 43.01 64.03 37.74
  Q 59.61 25.59 56.64 18.24
  Q 55.64 15.76 54.03 13.42
  A 0.40 0.40 0.0 0 1 54.36 12.79
  L 62.25 12.85
  Q 62.87 12.85 62.91 13.48
  Q 63.15 17.90 64.90 22.97
  Q 68.36 33.03 72.25 43.29
  Q 72.84 44.86 73.43 43.30
  Z"
/>
<path fill="#06a3e8" d="
  M 34.34 61.70
  L 34.42 58.70
  Q 34.43 58.12 35.01 58.11
  L 35.32 58.11
  Q 35.99 58.11 35.99 58.78
  L 36.00 63.47
  Q 36.01 67.72 33.48 64.30
  L 31.59 61.76
  Q 31.09 61.08 31.06 61.93
  L 30.95 65.08
  A 0.56 0.56 0.0 0 1 30.35 65.62
  L 30.00 65.60
  A 0.85 0.85 0.0 0 1 29.21 64.73
  L 29.37 58.73
  A 0.60 0.60 0.0 0 1 30.11 58.16
  Q 31.02 58.38 31.62 59.20
  Q 32.64 60.61 33.73 61.92
  Q 34.32 62.62 34.34 61.70
  Z"
/>
<path fill="#06a3e8" d="
  M 41.19 60.52
  Q 41.29 60.75 41.52 60.88
  Q 41.71 60.98 41.92 60.96
  Q 43.64 60.79 43.95 61.01
  Q 45.98 62.44 43.51 62.58
  Q 42.48 62.64 41.36 62.73
  A 0.30 0.30 0.0 0 0 41.09 63.03
  L 41.09 63.36
  Q 41.10 63.96 41.69 63.97
  L 44.56 64.01
  Q 45.11 64.02 45.06 64.57
  L 45.03 64.87
  Q 44.97 65.46 44.38 65.46
  L 40.25 65.48
  Q 39.26 65.49 39.27 64.50
  L 39.34 59.08
  Q 39.35 58.26 40.17 58.26
  L 44.49 58.21
  Q 45.03 58.20 45.00 58.74
  L 44.97 59.17
  A 0.63 0.63 0.0 0 1 44.34 59.76
  L 41.69 59.77
  Q 40.87 59.78 41.19 60.52
  Z"
/>
<path fill="#06a3e8" d="
  M 61.64 64.16
  Q 59.34 63.67 58.74 65.08
  Q 58.45 65.76 57.73 65.59
  L 57.31 65.50
  A 0.52 0.52 0.0 0 1 56.95 64.79
  L 59.64 58.82
  A 1.25 1.25 0.0 0 1 61.93 58.84
  L 64.45 64.76
  A 0.57 0.57 0.0 0 1 63.90 65.55
  Q 63.11 65.51 62.65 64.83
  A 1.62 1.61 78.5 0 0 61.64 64.16
  Z
  M 61.03 61.06
  Q 61.01 60.92 60.91 60.79
  Q 60.60 60.41 60.41 60.86
  Q 60.06 61.69 60.25 62.49
  Q 60.31 62.76 60.58 62.76
  L 61.01 62.77
  A 0.45 0.44 79.3 0 0 61.43 62.15
  Q 61.35 61.96 61.25 61.77
  Q 61.07 61.44 61.03 61.06
  Z"
/>
<path fill="#06a3e8" d="
  M 70.74 60.50
  L 70.83 64.67
  A 0.91 0.91 0.0 0 1 69.97 65.60
  L 69.69 65.61
  A 0.65 0.65 0.0 0 1 69.00 64.97
  L 68.96 60.47
  A 0.70 0.70 0.0 0 0 68.28 59.77
  Q 67.96 59.76 67.65 59.86
  Q 67.02 60.08 66.78 59.45
  Q 66.62 59.02 66.78 58.59
  Q 66.93 58.17 67.39 58.17
  L 72.37 58.24
  Q 72.74 58.25 72.91 58.58
  Q 73.14 59.03 72.92 59.53
  Q 72.71 60.02 72.20 59.86
  Q 71.75 59.72 71.29 59.81
  Q 70.73 59.93 70.74 60.50
  Z"
/>
<path fill="#06a3e8" d="
  M 82.9594 62.1678
  A 3.93 3.68 4.2 0 1 78.7705 65.5501
  A 3.93 3.68 4.2 0 1 75.1206 61.5922
  A 3.93 3.68 4.2 0 1 79.3095 58.2099
  A 3.93 3.68 4.2 0 1 82.9594 62.1678
  Z
  M 81.17 61.89
  A 2.10 2.10 0.0 0 0 79.07 59.79
  A 2.10 2.10 0.0 0 0 76.97 61.89
  A 2.10 2.10 0.0 0 0 79.07 63.99
  A 2.10 2.10 0.0 0 0 81.17 61.89
  Z"
/>
<path fill="#06a3e8" d="
  M 15.59 63.40
  Q 15.76 63.17 15.72 62.27
  A 0.44 0.44 0.0 0 1 16.18 61.80
  L 16.57 61.82
  Q 17.25 61.86 17.23 62.54
  L 17.17 64.23
  Q 17.15 64.88 16.55 65.11
  C 11.28 67.22 8.03 60.92 12.46 58.73
  Q 14.53 57.70 16.68 58.87
  A 0.66 0.66 0.0 0 1 16.98 59.67
  L 16.88 59.96
  Q 16.75 60.30 16.40 60.21
  Q 15.73 60.04 15.07 59.79
  C 13.20 59.10 11.88 60.82 12.35 62.59
  A 1.92 1.79 57.1 0 0 15.59 63.40
  Z"
/>
<path fill="#06a3e8" d="
  M 22.72 60.91
  L 25.32 61.09
  A 0.62 0.61 1.0 0 1 25.89 61.68
  L 25.90 61.95
  A 0.62 0.61 -2.3 0 1 25.30 62.59
  L 22.74 62.67
  Q 21.86 62.69 22.25 63.48
  Q 22.43 63.84 22.84 63.90
  Q 24.24 64.07 25.73 64.00
  A 0.49 0.48 -89.5 0 1 26.24 64.52
  L 26.21 64.83
  A 0.71 0.70 2.2 0 1 25.50 65.48
  L 21.25 65.50
  Q 20.49 65.50 20.49 64.74
  L 20.51 59.25
  Q 20.52 58.27 21.50 58.26
  L 25.53 58.24
  Q 26.07 58.24 26.05 58.78
  L 26.04 59.24
  Q 26.02 59.75 25.51 59.75
  L 22.80 59.77
  Q 22.46 59.77 22.33 60.08
  Q 22.26 60.25 22.26 60.43
  Q 22.27 60.88 22.72 60.91
  Z"
/>
<path fill="#06a3e8" d="
  M 53.34 63.66
  Q 53.86 64.22 54.14 64.96
  Q 54.34 65.48 53.78 65.53
  Q 52.24 65.65 51.82 64.30
  Q 51.68 63.85 51.31 63.55
  Q 51.12 63.40 50.90 63.35
  A 0.66 0.65 12.8 0 0 50.13 63.83
  L 49.86 64.94
  Q 49.73 65.46 49.20 65.55
  Q 48.83 65.61 48.51 65.46
  A 0.77 0.75 13.3 0 1 48.08 64.78
  L 48.09 58.89
  Q 48.09 58.35 48.63 58.28
  Q 51.17 57.96 53.21 58.76
  Q 53.74 58.96 53.96 59.48
  Q 54.81 61.41 53.35 62.91
  Q 53.00 63.28 53.34 63.66
  Z
  M 52.5303 60.5543
  A 0.75 0.75 0.0 0 0 51.8247 59.7624
  L 50.7665 59.7014
  A 0.75 0.75 0.0 0 0 49.9746 60.4070
  L 49.9297 61.1857
  A 0.75 0.75 0.0 0 0 50.6353 61.9776
  L 51.6935 62.0386
  A 0.75 0.75 0.0 0 0 52.4854 61.3330
  L 52.5303 60.5543
  Z"
/>
<path fill="#06a3e8" d="
  M 87.80 64.20
  Q 87.94 64.82 87.36 65.20
  Q 85.96 66.12 85.97 64.45
  L 85.99 58.83
  Q 85.99 58.30 86.52 58.26
  C 88.72 58.12 92.16 57.96 92.04 61.15
  A 1.73 1.69 68.2 0 1 91.57 62.28
  Q 90.52 63.38 91.68 64.39
  A 0.62 0.62 0.0 0 1 91.72 65.28
  L 91.48 65.52
  Q 91.19 65.82 90.82 65.61
  C 89.81 65.02 89.67 63.70 88.64 63.45
  Q 88.51 63.42 88.38 63.43
  Q 87.64 63.48 87.80 64.20
  Z
  M 90.3165 60.5806
  A 0.80 0.80 0.0 0 0 89.5594 59.7398
  L 88.4809 59.6833
  A 0.80 0.80 0.0 0 0 87.6402 60.4403
  L 87.6035 61.1394
  A 0.80 0.80 0.0 0 0 88.3606 61.9802
  L 89.4391 62.0367
  A 0.80 0.80 0.0 0 0 90.2798 61.2797
  L 90.3165 60.5806
  Z"
/>
</svg>
